# xmcd
#
# Track frame offsets: 
#        150
#        21379
#        40211
#        62804
#        91210
#        113422
#        134561
#        154725
#        174638
#        195016
#        215277
#        237379
#
# Disc length: 3359 seconds
#
# Revision: 0
# Processed by: cddbd v1.5.2PL0 Copyright (c) Steve Scherf et al.
# Submitted via: ExactAudioCopy v1.2
#
DISCID=9b0d1d0c
DTITLE=Biscuit Miller - Wishbone
DYEAR=2016
DGENRE=Blues
TTITLE0=Wishbone
TTITLE1=She Likes to Boogie
TTITLE2=Down at the Mississippi
TTITLE3=Mr. DJ (feat. Ronnie Baker Brooks)
TTITLE4=Lay It on Down
TTITLE5=Shake It Like Jello
TTITLE6=Bottle of Whiskey, Bottle of Wine (feat. Ronnie Baker Brooks)
TTITLE7=Use to Love Me Baby
TTITLE8=One More Mile
TTITLE9=Monday Morning Blues
TTITLE10=Let's Go Fishing
TTITLE11=Going Home (feat. Uncle Jesse Hutson)
EXTD=
EXTT0=
EXTT1=
EXTT2=
EXTT3=
EXTT4=
EXTT5=
EXTT6=
EXTT7=
EXTT8=
EXTT9=
EXTT10=
EXTT11=
PLAYORDER=
